<svg width="240" height="324" viewBox="0 0 240 324" fill="none" xmlns="http://www.w3.org/2000/svg">
<g filter="url(#filter0_d_3_19071)">
<path fill-rule="evenodd" clip-rule="evenodd" d="M170.479 181.122C168.644 180.468 166.876 179.712 165.265 178.601C160.62 175.142 157.592 169.938 154.731 165.007C150.7 157.835 147.829 150.193 145.844 142.221C144.991 138.796 144.701 134.824 142.764 131.788C138.371 125.429 125.49 126.253 118.65 127.369C114.07 128.18 113.124 133.308 112.083 137.102C111.217 140.255 110.65 143.443 110.174 146.674C109.042 147.419 107.763 148.024 106.545 148.551C93.2646 152.625 90.9305 160.177 85.8582 171.843C77.291 188.8 54.0442 195.439 50.5327 215.506C48.2703 228.755 54.704 241.219 61.3372 252.233C67.5146 264.263 76.1388 270.037 89.8731 267.195C102.755 264.304 115.135 259.468 127.791 255.731C133.92 254.224 140.04 250.302 146.488 251.669C159.773 254.654 173.424 256.058 187.039 255.67C206.155 256.444 206.152 238.089 204.19 223.875C202.816 201.755 191.663 187.551 170.479 181.122V181.122Z" fill="#D08B5B"/>
<path fill-rule="evenodd" clip-rule="evenodd" d="M171.757 213.13C173.354 214.187 174.698 215.789 175.776 217.475C171.274 217.007 166.779 216.467 162.294 215.852C162.881 215.476 163.474 215.109 164.08 214.762C166.291 213.516 169.288 211.497 171.757 213.13ZM96.9502 226.445C96.1252 226.122 95.806 224.863 95.4844 224.142C94.4763 221.88 93.5562 219.579 92.5989 217.295C96.2336 216.259 99.7681 215.109 103.533 214.556C107.582 213.963 111.69 213.819 115.776 213.953C124.052 214.223 132.252 215.576 140.388 217.027C148.516 218.476 156.642 219.868 164.826 220.961C172.845 222.031 180.888 222.815 188.947 223.503C190.513 223.636 193.123 224.2 194.382 222.967C195.379 221.991 195.412 220.19 194.164 219.397C193.387 218.902 192.261 218.895 191.374 218.781C190.255 218.637 189.133 218.541 188.008 218.466C187.55 218.436 187.092 218.408 186.633 218.38C190.313 216.992 194.156 216.236 198.145 216.447C198.371 217.818 199.387 219.228 199.944 220.359C200.915 222.333 201.672 224.331 202.169 226.477C203.208 230.964 203.254 235.62 202.96 240.196C202.69 244.011 202.111 248.232 199.12 250.934C196.855 252.98 193.659 253.737 190.695 253.975C187.249 254.252 183.75 253.957 180.333 253.495C175.54 252.846 170.726 251.989 166.028 250.84C156.928 248.615 148.206 245.075 140.159 240.274C136.235 237.934 132.49 235.3 128.512 233.049C124.459 230.754 120.145 228.973 115.616 227.868C110.548 226.631 105.249 226.103 100.04 226.408C99.1356 226.461 97.8295 226.789 96.9502 226.445ZM91.0765 224.148C91.6092 225.877 92.0167 227.851 93.1535 229.304C94.2796 230.744 95.9784 231.252 97.7382 231.38C99.8602 231.534 102.007 231.435 104.134 231.514C108.495 231.676 112.797 232.385 116.967 233.685C120.852 234.897 124.459 236.787 127.934 238.883C131.147 240.822 134.266 242.904 137.48 244.837C136.624 245.229 135.778 245.653 134.928 246.023C133.145 246.798 131.35 247.545 129.548 248.274C125.993 249.711 122.423 251.114 118.817 252.416C111.546 255.043 104.155 257.338 96.6749 259.293C93.1075 260.226 89.4893 261.315 85.783 261.47C82.4965 261.607 79.4524 260.678 76.8018 258.723C71.3042 254.669 66.9304 248.816 63.3946 243.044C61.2939 239.614 59.4608 236.011 57.9445 232.285C57.1776 230.401 56.4821 228.488 55.8561 226.552C55.5625 225.643 55.284 224.729 55.0203 223.811C54.9044 223.408 54.7932 223.003 54.6832 222.597C60.3048 220.881 65.9932 219.332 71.8151 218.472C74.9235 218.013 78.0732 217.78 81.2156 217.814C82.7754 217.831 84.3344 217.915 85.8859 218.076C86.7211 218.163 87.5528 218.274 88.381 218.412C88.7232 218.469 89.075 218.553 89.4278 218.615C89.9668 220.463 90.5101 222.309 91.0765 224.148ZM207.283 216.803C207.586 216.19 207.713 215.586 207.822 214.919C207.905 214.41 208.125 213.693 207.932 213.032C207.717 212.292 207.129 211.629 206.708 210.998C206.243 210.3 205.778 209.602 205.313 208.903C204.384 207.506 203.457 206.107 202.532 204.708C198.753 198.993 195 193.261 191.241 187.533C187.905 182.45 184.625 177.321 181.188 172.306C178.248 168.018 175.044 163.8 171.021 160.465C165.934 156.248 159.876 154.262 153.549 152.712C152.858 151.994 151.935 151.602 150.949 151.682C149.555 150.1 148.447 148.996 147.945 146.984C147.704 146.021 147.779 143.314 146.841 142.744C145.727 142.067 145.146 142.963 144.838 143.973C143.811 147.353 144.99 151.897 147.705 155.282C146.561 159.236 145.045 164.857 142.34 168.025C139.443 171.417 135.436 172.473 131.114 172.543C122.871 172.675 114.636 169.61 108.349 164.299C106.437 162.684 104.663 160.881 103.057 158.964C101.852 157.525 100.427 155.305 99.4852 153.627C99.4852 152.973 98.7134 152.289 106.571 151.761C114.429 151.232 115.025 140.469 115.2 139.004C115.341 137.814 115.945 135.968 115.107 134.998C114.752 134.586 114.022 134.52 113.571 134.8C112.721 135.328 112.442 136.678 112.175 137.596C111.8 138.88 110.576 146.854 108.257 147.777C107.172 148.209 105.926 148.217 104.778 148.297C103.36 148.396 101.938 148.469 100.526 148.634C100.005 148.695 99.4366 148.863 98.9226 148.868C98.5882 148.871 98.2432 148.709 97.9199 148.595C96.8289 148.209 95.7388 148.498 94.6149 148.65C84.6777 149.986 74.4458 153.035 65.9697 158.521C58.4989 163.357 53.2356 170.311 49.7625 178.442C46.2189 186.74 44.1878 195.714 42.4856 204.547C41.9154 207.507 41.4175 210.481 40.9896 213.464C40.5762 216.347 40.059 219.295 39.9352 222.207C39.8862 223.359 40.1615 224.43 40.5851 225.482C41.0621 226.667 42.1896 227.134 43.2711 227.687C45.6451 228.902 48.1495 229.844 50.7297 230.511C52.306 233.38 53.6325 236.361 54.6986 239.454C54.3031 240.238 54.2949 241.409 54.2188 242.171C54.0301 244.068 53.9494 245.975 53.9325 247.881C53.8985 251.701 54.1282 255.518 54.3082 259.332C54.4907 263.2 55.0975 278.464 55.1963 280.328C55.2732 281.776 55.1697 283.801 55.9322 285.087C57.1039 287.062 59.9957 286.996 61.3351 285.394C94.6149 292.551 157.171 290.395 182.366 286.794C185.644 286.326 184.615 286.845 185.448 286.017C186.074 285.395 186.606 284.329 186.779 283.473C187.01 282.33 186.637 281.296 185.983 280.371C185.296 279.399 185.17 277.824 184.915 276.668C184.311 273.935 184.011 261.932 183.728 260.602C183.64 260.188 183.555 259.75 183.453 259.312C188.074 259.749 192.89 259.749 197.286 258.203C199.779 257.326 202.105 255.949 203.894 253.982C206.062 251.601 207.267 248.603 207.887 245.474C208.688 241.439 208.857 237.26 208.7 233.158C208.482 228.311 207.678 223.395 205.683 218.944C206.34 218.334 206.89 217.599 207.283 216.803Z" fill="black"/>
</g>
<path fill-rule="evenodd" clip-rule="evenodd" d="M160.478 70.1279C158.986 64.7393 159.2 64.1565 156.976 59.0095C149.601 44.0564 100.32 49.0631 95.2899 63.9895C92.5614 72.0872 93.2024 83.4914 92.4921 90.5131C92.2748 94.236 92.0613 97.9591 91.8401 101.682C91.7637 102.967 91.6864 104.253 91.6077 105.538C91.4545 108.041 91.3054 110.543 91.1663 113.046C90.2397 120.758 94.1053 121.542 100.736 121.314C102.489 125.554 105.328 129.093 108.835 131.972C107.989 134.281 111.058 135.476 112.714 136.399C121.723 141.442 132.789 144.518 142.768 141.682C145.7 140.849 157.808 137.963 161.531 129.03C163.36 124.644 167.076 101.927 162.175 81.4915L160.478 70.1279Z" fill="#D08B5B"/>
<path fill-rule="evenodd" clip-rule="evenodd" d="M128.978 34.9797C130.372 34.7327 131.93 34.8278 132.729 36.1994C132.901 36.4951 133.011 36.7933 133.064 37.0871C136.871 36.229 140.824 36.136 144.714 36.6982C145.873 36.865 146.28 38.4142 145.77 39.2999C145.717 39.3908 145.665 39.4794 145.608 39.5663C146.826 39.6654 148.043 39.8767 149.249 40.2024C150.107 40.4349 150.908 41.5487 150.526 42.4617C150.492 42.5421 150.457 42.6224 150.421 42.7025C152.316 43.0218 154.127 43.7679 155.71 44.9726C155.9 45.1142 156.075 45.2981 156.22 45.5073C159.76 45.1076 163.405 45.8412 166.565 47.5532C167.451 48.0327 167.879 49.4152 167.278 50.2775C167.09 50.5459 166.894 50.8016 166.684 51.0489C168.058 51.5583 169.275 52.3823 170.095 53.7246C170.986 55.1808 171.26 57.0555 170.782 58.6575C171.781 59.6783 172.304 61.2421 171.948 62.8103C171.623 64.2414 170.748 65.15 169.627 65.6955C169.854 66.3929 169.671 67.1855 169.154 67.7242C168.362 68.5506 167.413 69.1847 166.38 69.6012C166.378 69.8697 166.31 70.1465 166.175 70.4044C165.244 72.1964 163.235 73.3865 161.192 73.5662C161.879 76.4593 162.444 79.3889 162.992 82.3013C163.966 87.4815 164.721 92.7124 165.18 97.9642L165.236 98.6137C165.985 107.501 166.159 116.811 164.356 125.577C163.207 131.159 159.724 135.864 155.078 139.051C150.353 142.293 144.581 143.906 138.901 144.161C136.005 144.29 133.081 144.045 130.243 143.449C128.896 143.166 127.595 142.764 126.315 142.253C124.939 141.701 123.805 140.888 122.641 139.972C122.036 139.497 122.382 138.375 123.098 138.233C123.611 138.129 124.116 138.017 124.627 137.924C125.095 137.838 125.605 138.307 125.508 138.74L126.495 138.995C126.824 139.08 127.153 139.166 127.481 139.254L127.972 139.389C129.37 139.78 130.8 140.11 132.233 140.344C135.151 140.82 138.187 140.831 141.119 140.461C146.05 139.841 151.087 138.079 154.922 134.83C156.802 133.237 158.369 131.349 159.505 129.158C160.949 126.374 161.386 123.273 161.748 120.194C162.796 111.29 162.473 102.373 161.66 93.4669C161.255 89.037 160.703 84.6156 160.116 80.2047C159.815 77.9432 159.49 75.6776 159.223 73.4077C158.626 73.247 158.057 72.9807 157.547 72.594C157.201 72.3319 156.998 72.0273 156.91 71.7169C156.395 71.6194 155.901 71.3361 155.545 70.8569L155.499 70.7933C154.566 69.4383 152.951 68.6628 151.456 68.0985C150.549 67.7562 149.626 67.4579 148.707 67.1538C147.75 66.8347 146.738 66.3634 145.732 66.2408C144.592 66.1055 143.443 66.45 142.291 66.3274C141.246 66.2133 140.324 65.8369 139.572 65.0847C139.309 64.8226 139.081 64.5204 138.899 64.1949C135.389 64.9471 131.702 63.9983 128.055 64.2266C125.655 64.3788 123.539 65.8667 121.114 65.8265C120.452 65.816 119.812 65.5835 119.346 65.1756C117.058 65.6131 114.733 66.454 112.582 67.1768C110.457 67.8914 108.412 68.8531 106.313 69.6329C106.31 69.6351 106.31 69.6351 106.31 69.6372C106.036 70.527 105.218 70.9114 104.348 70.7552C101.5 70.2459 99.1004 68.4449 96.3281 67.7857C95.5649 70.5735 94.7448 73.325 94.1842 76.1679C93.6169 79.0359 93.2184 81.942 92.9549 84.8544C92.6893 87.7774 92.5628 90.7299 92.5565 93.6635C92.5544 95.1598 92.5923 96.6602 92.6429 98.1566C92.6839 99.4102 92.9222 100.995 92.4704 102.201L92.43 102.303H92.4279C92.373 102.479 92.1264 102.585 91.9872 102.422C91.1376 101.432 90.9352 99.8582 90.6991 98.6152C90.4124 97.1064 90.229 95.5825 90.0816 94.0543C89.7863 90.9876 89.7209 87.9338 89.8769 84.8544C90.1826 78.7929 91.1524 72.3909 93.2227 66.6614C92.586 66.7203 92.3014 65.78 92.2592 65.2495C92.1785 64.1834 92.3451 63.0521 92.5257 61.9828L92.7144 60.8759C92.8934 59.8311 93.0828 58.8136 93.4377 57.7973C94.2896 55.3581 95.5143 53.0673 97.0406 50.9855C100.154 46.7395 104.47 43.5246 109.384 41.6713C109.692 41.5551 109.983 41.5572 110.24 41.6457C114.712 39.2302 119.518 37.3703 124.401 36.0473C125.911 35.6394 127.439 35.2547 128.978 34.9797ZM91.8439 103.126C93.8742 101.849 98.0632 101.515 99.1953 104.235C99.2417 104.345 99.111 104.442 99.014 104.417L98.737 104.347C97.6728 104.082 96.7532 103.93 95.6619 104.368C94.7027 104.753 93.7709 105.355 93.1363 106.184C91.6362 108.143 91.4736 110.804 91.6135 113.181L91.6205 113.296C91.7512 115.382 92.2846 117.922 94.319 118.954C95.3499 119.476 96.4652 119.438 97.5846 119.429C98.8601 119.421 100.163 119.56 101.382 119.953C102.062 120.173 102.383 121.078 101.818 121.608C101.63 121.784 101.434 121.948 101.228 122.096C101.845 122.756 102.453 123.424 103.041 124.128C104.038 125.322 105.098 126.475 106.205 127.568C107.276 128.623 108.41 129.644 109.633 130.519C110.919 131.436 112.458 132.081 113.571 133.205C114.296 133.936 114.172 134.957 113.571 135.697C112.08 137.535 109.541 135.602 108.115 134.515L107.942 134.384C106.46 133.26 105.052 132.047 103.852 130.618C102.63 129.16 101.571 127.608 100.789 125.869C100.33 124.846 100.036 123.88 99.8784 122.87C97.3148 123.986 94.0829 123.631 91.7849 122.06C88.7343 119.976 87.8784 116.151 87.8677 112.66L87.868 112.453C87.8906 109.059 88.78 105.052 91.8439 103.126ZM97.6276 108.045L97.7216 108.046C98.8506 108.07 99.8575 108.478 100.817 109.04L100.916 109.098C101.847 109.654 103.184 110.1 103.677 111.14C103.972 111.768 103.951 112.486 103.437 113.006C102.505 113.949 101.099 113.792 100.091 113.057C99.3386 112.505 98.8432 111.679 98.1053 111.121C96.7181 110.068 94.5298 110.128 93.0858 111.039C92.9971 111.096 92.9109 110.988 92.9507 110.903C93.8375 109.084 95.5949 108.038 97.6276 108.045V108.045Z" fill="black"/>
<path fill-rule="evenodd" clip-rule="evenodd" d="M143.152 128.274C141.732 127.695 140.465 126.728 139.538 125.493C139.216 125.063 139.133 124.61 139.2 124.195C139.276 123.729 139.552 123.306 139.928 123.023C140.305 122.739 140.777 122.598 141.233 122.67C141.63 122.732 142.024 122.949 142.337 123.399L142.402 123.489C142.953 124.235 143.67 124.846 144.488 125.241C145.276 125.621 146.158 125.798 147.07 125.695C148.808 125.499 150.005 124.559 151.278 123.282C151.436 123.121 151.594 122.955 151.752 122.786C151.852 122.633 151.991 122.534 152.146 122.483C152.317 122.425 152.511 122.429 152.689 122.491C152.86 122.55 153.013 122.664 153.116 122.815C153.213 122.958 153.269 123.135 153.251 123.339C153.134 124.661 152.443 125.842 151.461 126.769C150.37 127.799 148.924 128.511 147.563 128.761C146.064 129.036 144.536 128.839 143.152 128.274V128.274ZM148.271 107.866C149.866 108.836 152.297 111.098 150.581 113.503C148.56 115.624 145.652 113.193 144.218 112.093C142.889 111.241 141.396 113.433 142.629 114.428C152.986 122.099 157.19 108.12 149.078 106.726C148.184 106.572 147.853 107.566 148.271 107.866ZM129.711 98.9429C129.887 96.7541 133.219 96.257 133.551 98.423C133.847 100.363 133.498 102.145 132.624 103.892C131.79 105.561 129.692 104.783 129.533 103.263C129.32 101.226 129.601 100.304 129.711 98.9429ZM155.076 97.9739C155.541 97.3652 156.211 96.9497 157.015 97.1845C159.526 97.9185 158.786 101.485 157.904 103.22C157.425 104.163 155.876 104.402 155.176 103.572C154.035 102.219 153.489 99.5157 154.939 98.1825C154.979 98.1136 155.022 98.044 155.076 97.9739ZM132.589 89.3654L132.986 89.2959C134.213 89.0836 135.738 88.8796 136.606 89.8665C137.067 90.3898 137.225 91.3624 136.606 91.8633C135.518 92.7446 134.314 92.4031 133.01 92.4777C131.935 92.5394 130.902 92.7174 129.867 93.0135C127.595 93.6629 125.744 94.8486 123.804 96.1505C123.549 96.3213 123.29 95.9956 123.411 95.7574C124.531 93.563 126.701 91.7604 128.875 90.6616C130.036 90.0751 131.305 89.5885 132.589 89.3654ZM152.787 88.3823L153.091 88.4445C156.394 89.1353 160.687 90.5153 162.251 93.7615C162.311 94.2205 162.248 94.3189 162.196 94.3832L162.179 94.4046C162.137 94.4595 162.104 94.5351 161.905 94.5976C161.849 94.5844 161.794 94.5705 161.737 94.5557C161.02 94.3677 160.453 94.1087 159.904 93.84L159.308 93.5465C158.617 93.2076 157.92 92.881 157.181 92.6399C155.605 92.1255 153.983 91.7631 152.337 91.5696C151.98 91.5277 151.636 91.4072 151.365 91.2006C151.107 91.0046 150.911 90.7332 150.821 90.3724C150.705 89.9056 150.738 89.5521 150.989 89.1309C151.177 88.8146 151.447 88.5953 151.756 88.4694C152.071 88.3411 152.43 88.3108 152.787 88.3823Z" fill="black"/>
<path fill-rule="evenodd" clip-rule="evenodd" d="M129.449 129.598C131.159 125.59 134.893 122.644 139.191 121.566C142.347 120.777 145.66 120.803 148.877 121.116C150.563 121.279 152.371 121.412 153.96 122.038C155.317 122.573 156.422 123.585 157.253 124.772C158.243 126.179 158.916 127.789 159.389 129.439C159.456 129.674 159.519 129.91 159.578 130.148C159.372 131.393 158.936 132.453 157.783 133.235C156.658 134 155.316 134.313 153.978 134.424C153.846 134.361 153.72 134.296 153.603 134.229C151.518 133.035 150.051 130.213 147.419 130.595C145.07 130.936 143.524 133.893 142.127 135.626C137.644 136.149 133.164 134.801 129.516 132.236C129.33 131.359 129.32 130.473 129.449 129.598M162.625 126.557C162.266 125.551 161.815 124.575 161.279 123.657C159.509 120.619 156.791 118.198 153.565 116.814C145.934 113.546 136.06 115.85 129.897 121.211C127.792 123.044 125.663 125.737 125.019 128.634C124.827 128.672 124.646 128.772 124.496 128.913C120.043 126.108 115.458 123.41 111.87 119.523C109.264 116.698 107.452 113.355 106.342 109.682C106.251 109.38 105.764 109.424 105.779 109.759C105.783 109.837 105.787 109.915 105.792 109.993C105.745 109.849 105.526 109.923 105.509 110.063C104.912 114.525 104.165 119.256 104.853 123.741C105.264 126.418 106.479 128.377 108.104 130.493C109.845 132.761 111.815 134.87 113.83 136.893C115.109 138.177 116.444 139.658 118.01 140.6C119.831 141.694 121.896 142.525 123.839 143.369C125.816 144.23 127.823 145.026 129.867 145.716C133.954 147.099 138.178 148.056 142.476 148.475C145.917 148.809 149.85 149.173 153.148 147.878C155.675 146.886 157.715 145.092 159.334 142.933C161.095 140.583 162.488 137.905 163.258 135.082C164.058 132.149 162.794 127.03 162.625 126.557" fill="black"/>
<defs>
<filter id="filter0_d_3_19071" x="27.0563" y="126.599" width="185.697" height="171.534" filterUnits="userSpaceOnUse" color-interpolation-filters="sRGB">
<feFlood flood-opacity="0" result="BackgroundImageFix"/>
<feColorMatrix in="SourceAlpha" type="matrix" values="0 0 0 0 0 0 0 0 0 0 0 0 0 0 0 0 0 0 127 0" result="hardAlpha"/>
<feOffset dy="4"/>
<feGaussianBlur stdDeviation="2"/>
<feComposite in2="hardAlpha" operator="out"/>
<feColorMatrix type="matrix" values="0 0 0 0 0 0 0 0 0 0 0 0 0 0 0 0 0 0 0.25 0"/>
<feBlend mode="normal" in2="BackgroundImageFix" result="effect1_dropShadow_3_19071"/>
<feBlend mode="normal" in="SourceGraphic" in2="effect1_dropShadow_3_19071" result="shape"/>
</filter>
</defs>
</svg>
